<?xml version="1.0" standalone="no"?>
<!DOCTYPE svg PUBLIC "-//W3C//DTD SVG 20010904//EN"
 "http://www.w3.org/TR/2001/REC-SVG-20010904/DTD/svg10.dtd">
<svg version="1.0" xmlns="http://www.w3.org/2000/svg"
 width="700.000000pt" height="700.000000pt" viewBox="0 0 700.000000 700.000000"
 preserveAspectRatio="xMidYMid meet">
<metadata>
Created by potrace 1.11, written by Peter Selinger 2001-2013
</metadata>
<g transform="translate(0.000000,700.000000) scale(0.100000,-0.100000)"
fill="#000000" stroke="none">
<path d="M3290 6924 c-19 -2 -87 -9 -150 -15 -231 -21 -526 -87 -761 -168
-715 -247 -1325 -723 -1747 -1363 -253 -383 -422 -807 -506 -1268 -39 -215
-51 -359 -51 -610 0 -329 31 -574 110 -875 267 -1019 998 -1865 1970 -2280
302 -129 650 -219 990 -257 154 -17 556 -17 710 0 1038 115 1941 666 2513
1534 253 383 422 807 506 1268 39 215 51 359 51 610 0 329 -31 574 -110 875
-267 1019 -998 1865 -1970 2280 -292 125 -617 211 -945 251 -118 15 -534 27
-610 18z m630 -1574 c135 -5 299 -15 365 -20 183 -16 756 -80 789 -88 37 -10
51 -31 42 -65 -4 -16 -314 -352 -791 -858 l-785 -831 0 -869 c0 -478 4 -869 8
-869 28 0 657 -72 661 -75 2 -3 1 -8 -2 -12 -13 -12 -607 -23 -942 -18 -368 6
-482 12 -468 26 7 7 615 79 665 79 4 0 8 390 7 868 l0 867 -775 820 c-427 451
-785 833 -796 848 -29 40 -18 73 30 87 40 11 582 72 802 91 327 27 803 35
1190 19z"/>
</g>
</svg>
