<svg width="24" height="24" viewBox="0 0 24 24" fill="none" xmlns="http://www.w3.org/2000/svg">
<path fill-rule="evenodd" clip-rule="evenodd" d="M8 8.36364H2.00495C0.897026 8.36364 0 9.17436 0 10.1744V20.1892C0 21.1878 0.897645 22 2.00495 22H21.9951C23.103 22 24 21.1893 24 20.1892V10.1744C24 9.17582 23.1024 8.36364 21.9951 8.36364H16V3.8108C16 2.81218 15.1054 2 14.0019 2H9.9981C8.88671 2 8 2.81072 8 3.8108V8.36364ZM9.40674 3.99308C9.40674 3.66785 9.49674 3.39131 9.67676 3.16344C9.85677 2.93558 10.1177 2.82164 10.4595 2.82164C10.7739 2.82164 11.0343 2.92366 11.2405 3.12771C11.4467 3.33175 11.5498 3.6316 11.5498 4.02726C11.5498 4.41256 11.4456 4.70929 11.2371 4.91748C11.0286 5.12567 10.7716 5.22976 10.4663 5.22976C10.1632 5.22976 9.91089 5.12722 9.70923 4.92214C9.50757 4.71706 9.40674 4.40738 9.40674 3.99308ZM10.48 7.62234L13.2212 2.82164H13.7202L10.9893 7.62234H10.48ZM12.647 6.38565C12.647 6.05836 12.737 5.7813 12.917 5.55447C13.097 5.32764 13.359 5.21422 13.7031 5.21422C14.0176 5.21422 14.2779 5.31624 14.4841 5.52029C14.6903 5.72433 14.7935 6.02418 14.7935 6.41983C14.7935 6.80513 14.6892 7.10187 14.4807 7.31006C14.2722 7.51824 14.0142 7.62234 13.7065 7.62234C13.4035 7.62234 13.1511 7.51928 12.9495 7.31317C12.7478 7.10705 12.647 6.79788 12.647 6.38565ZM2.98682 17.4545L5.46094 11.5978H6.37939L9.01611 17.4545H8.04492L7.29346 15.6808H4.59961L3.89209 17.4545H2.98682ZM10.0896 17.4545V11.5978H10.9421V16.7634H14.115V17.4545H10.0896ZM20.1543 15.4011L21.0069 15.5969C20.8281 16.2334 20.5066 16.7188 20.0423 17.053C19.5779 17.3873 19.0103 17.5544 18.3394 17.5544C17.645 17.5544 17.0803 17.4259 16.6453 17.1689C16.2102 16.9119 15.8792 16.5397 15.6521 16.0523C15.4251 15.5649 15.3115 15.0416 15.3115 14.4822C15.3115 13.8723 15.4397 13.3403 15.6961 12.8862C15.9524 12.4321 16.3172 12.0872 16.7903 11.8515C17.2634 11.6158 17.7842 11.498 18.3526 11.498C18.9971 11.498 19.5391 11.6471 19.9785 11.9454C20.418 12.2437 20.7241 12.6632 20.897 13.2038L20.0576 13.3836C19.9082 12.9575 19.6914 12.6472 19.4072 12.4528C19.1231 12.2583 18.7656 12.1611 18.335 12.1611C17.8399 12.1611 17.426 12.269 17.0935 12.4847C16.761 12.7005 16.5274 12.9901 16.3926 13.3536C16.2578 13.7172 16.1904 14.0921 16.1904 14.4782C16.1904 14.9763 16.2703 15.4111 16.43 15.7826C16.5896 16.1542 16.8379 16.4318 17.1748 16.6156C17.5117 16.7994 17.8765 16.8912 18.2691 16.8912C18.7466 16.8912 19.1509 16.7661 19.482 16.5157C19.813 16.2654 20.0371 15.8938 20.1543 15.4011Z" fill="white"/>
<path fill-rule="evenodd" clip-rule="evenodd" d="M4.8457 15.0494H7.02979L6.35742 13.4274C6.15234 12.9347 6 12.5298 5.90039 12.2129C5.81836 12.5884 5.70264 12.9613 5.55322 13.3315L4.8457 15.0494Z" fill="white"/>
<path fill-rule="evenodd" clip-rule="evenodd" d="M13.7202 5.59961C13.5653 5.59961 13.4371 5.65968 13.3357 5.77983C13.2343 5.89998 13.1836 6.12059 13.1836 6.44167C13.1836 6.73168 13.2349 6.93676 13.3374 7.05691C13.4399 7.17705 13.5664 7.23713 13.7168 7.23713C13.874 7.23713 14.0033 7.17705 14.1047 7.05691C14.2061 6.93676 14.2568 6.71718 14.2568 6.39817C14.2568 6.10402 14.2056 5.89739 14.103 5.77828C14.0005 5.65916 13.8729 5.59961 13.7202 5.59961Z" fill="white"/>
<path fill-rule="evenodd" clip-rule="evenodd" d="M10.4766 3.20703C10.3239 3.20703 10.1969 3.2671 10.0955 3.38725C9.99406 3.5074 9.94336 3.72801 9.94336 4.04909C9.94336 4.34118 9.99463 4.54677 10.0972 4.66588C10.1997 4.78499 10.3262 4.84455 10.4766 4.84455C10.6315 4.84455 10.7597 4.78448 10.8611 4.66433C10.9625 4.54418 11.0132 4.32461 11.0132 4.00559C11.0132 3.71144 10.9619 3.50481 10.8594 3.3857C10.7568 3.26659 10.6292 3.20703 10.4766 3.20703Z" fill="white"/>
</svg>
