<svg width="18" height="12" viewBox="0 0 18 12" fill="none" xmlns="http://www.w3.org/2000/svg">
<path d="M15.4143 10.4685C15.6731 10.792 16.1451 10.8444 16.4685 10.5857C16.792 10.3269 16.8444 9.85493 16.5857 9.53148L15.4143 10.4685ZM-0.585652 9.53148C-0.844409 9.85493 -0.791968 10.3269 -0.468521 10.5857C-0.145075 10.8444 0.326894 10.792 0.585652 10.4685L-0.585652 9.53148ZM8.39043 0.488043L8.97609 0.0195217L8.39043 0.488043ZM7.60956 0.488043L7.02391 0.0195219L7.60956 0.488043ZM7.80478 0.956564L15.4143 10.4685L16.5857 9.53148L8.97609 0.0195217L7.80478 0.956564ZM0.585652 10.4685L8.19522 0.956564L7.02391 0.0195219L-0.585652 9.53148L0.585652 10.4685ZM8.97609 0.0195217C8.47568 -0.605987 7.52432 -0.605986 7.02391 0.0195219L8.19522 0.956564C8.09514 1.08167 7.90486 1.08167 7.80478 0.956564L8.97609 0.0195217Z" transform="translate(1 1)" fill="white"/>
</svg>
