<svg width="24" height="24" viewBox="0 0 24 24" fill="none" xmlns="http://www.w3.org/2000/svg">
<path fill-rule="evenodd" clip-rule="evenodd" d="M1.23853 2.30986C1.25894 1.73859 1.74423 1.25874 2.30986 1.23853L8.95969 1.00095C9.53096 0.980536 10.3229 1.29285 10.7195 1.68947L22.394 13.3639C23.1985 14.1684 23.2013 15.47 22.3998 16.2714L16.2714 22.3998C15.4702 23.2011 14.1708 23.2009 13.3639 22.394L1.68947 10.7196C1.28879 10.3189 0.980731 9.52532 1.00094 8.9597L1.23853 2.30986ZM7.29553 7.29554C8.12673 6.46435 8.12673 5.11671 7.29554 4.28552C6.46434 3.45432 5.11671 3.45432 4.28551 4.28552C3.45431 5.11671 3.45431 6.46435 4.28551 7.29554C5.1167 8.12674 6.46434 8.12674 7.29553 7.29554Z" fill="white"/>
</svg>
