<svg width="18" height="14" viewBox="0 0 18 14" fill="none" xmlns="http://www.w3.org/2000/svg">
<path d="M15.4668 6.78833C15.7581 7.0828 16.233 7.08536 16.5275 6.79406C16.8219 6.50275 16.8245 6.02789 16.5332 5.73341L15.4668 6.78833ZM-0.580746 11.5254C-0.842854 11.8461 -0.795325 12.3186 -0.474588 12.5807C-0.153851 12.8429 0.318638 12.7953 0.580746 12.4746L-0.580746 11.5254ZM10.1974 0.395151L10.7305 -0.132305L10.1974 0.395151ZM9.45473 0.430396L8.87398 -0.0441924L9.45473 0.430396ZM9.66416 0.922607L15.4668 6.78833L16.5332 5.73341L10.7305 -0.132305L9.66416 0.922607ZM0.580746 12.4746L10.0355 0.904984L8.87398 -0.0441924L-0.580746 11.5254L0.580746 12.4746ZM10.7305 -0.132305C10.2083 -0.660174 9.34384 -0.619145 8.87398 -0.0441924L10.0355 0.904984C9.94151 1.01997 9.7686 1.02818 9.66416 0.922607L10.7305 -0.132305Z" transform="translate(17 13) rotate(-180)" fill="white"/>
</svg>
