<svg width="32" height="32" viewBox="0 0 32 32" fill="none" xmlns="http://www.w3.org/2000/svg">
<path fill-rule="evenodd" clip-rule="evenodd" d="M16 32C24.8366 32 32 24.8366 32 16C32 7.16344 24.8366 0 16 0C7.16344 0 0 7.16344 0 16C0 24.8366 7.16344 32 16 32ZM9.13807 8.19526C8.87772 7.93491 8.45561 7.93491 8.19526 8.19526C7.93491 8.45561 7.93491 8.87772 8.19526 9.13807L15.0572 16L8.19526 22.8619C7.93491 23.1223 7.93491 23.5444 8.19526 23.8047C8.45561 24.0651 8.87772 24.0651 9.13807 23.8047L16 16.9428L22.8619 23.8047C23.1223 24.0651 23.5444 24.0651 23.8048 23.8047C24.0651 23.5444 24.0651 23.1223 23.8048 22.8619L16.9428 16L23.8048 9.13807C24.0651 8.87772 24.0651 8.45561 23.8048 8.19526C23.5444 7.93491 23.1223 7.93491 22.8619 8.19526L16 15.0572L9.13807 8.19526Z" fill="white"/>
</svg>
