<svg width="24" height="24" viewBox="0 0 24 24" fill="none" xmlns="http://www.w3.org/2000/svg">
<path fill-rule="evenodd" clip-rule="evenodd" d="M7.96157 15.2749C7.77567 15.5711 7.81921 15.9566 8.06652 16.2039C8.31383 16.4512 8.69925 16.4947 8.99551 16.3088L12.7924 13.9261C12.8401 13.8962 12.8843 13.861 12.9241 13.8212L21.0507 5.69454C21.3436 5.40165 21.3436 4.92678 21.0507 4.63388L19.6365 3.21967C19.3436 2.92678 18.8687 2.92678 18.5759 3.21967L10.4492 11.3463C10.4094 11.3861 10.3742 11.4303 10.3443 11.478L7.96157 15.2749ZM11.9233 12.7006L10.9741 13.2963L11.5698 12.3471L19.1062 4.81066L19.4597 5.16421L11.9233 12.7006Z" fill="black"/>
<path d="M4.5 12.7498C4.5 8.74573 7.74594 5.4998 11.75 5.4998C12.7128 5.4998 13.63 5.68709 14.4686 6.02652C14.8525 6.18194 15.2898 5.99668 15.4452 5.61273C15.6006 5.22878 15.4154 4.79153 15.0314 4.63611C14.0171 4.22553 12.909 3.9998 11.75 3.9998C6.91751 3.9998 3 7.91731 3 12.7498C3 17.5823 6.91751 21.4998 11.75 21.4998C16.5825 21.4998 20.5 17.5823 20.5 12.7498C20.5 11.4906 20.2335 10.2916 19.7532 9.20776C19.5854 8.82907 19.1424 8.65813 18.7637 8.82595C18.385 8.99378 18.214 9.43682 18.3819 9.81551C18.779 10.7116 19 11.7039 19 12.7498C19 16.7539 15.7541 19.9998 11.75 19.9998C7.74594 19.9998 4.5 16.7539 4.5 12.7498Z" fill="black"/>
</svg>
