<svg width="32" height="32" viewBox="0 0 32 32" fill="none" xmlns="http://www.w3.org/2000/svg">
<path fill-rule="evenodd" clip-rule="evenodd" d="M16 32C24.8366 32 32 24.8366 32 16C32 7.16344 24.8366 0 16 0C7.16344 0 0 7.16344 0 16C0 24.8366 7.16344 32 16 32ZM16 5C16.2871 5 16.5416 5.18506 16.6303 5.45801L18.9218 12.5146H26.3372C26.5075 12.5146 26.6663 12.5796 26.7858 12.6895C26.8679 12.7651 26.9314 12.8618 26.9675 12.9727C27.0562 13.2461 26.959 13.5454 26.7267 13.7144L20.7275 18.0752L23.019 25.1318C23.1078 25.4053 23.0106 25.7046 22.7783 25.8735C22.546 26.042 22.2314 26.042 21.9992 25.8735L16 21.5122L10.0008 25.8735C9.76855 26.042 9.45397 26.042 9.22167 25.8735C8.98943 25.7046 8.8922 25.4053 8.98095 25.1318L11.2724 18.0752L5.27325 13.7144C5.04095 13.5454 4.94378 13.2461 5.03246 12.9727C5.05895 12.8911 5.10021 12.8174 5.15264 12.7544C5.27599 12.606 5.46136 12.5146 5.66277 12.5146H13.0782L15.3697 5.45801C15.4584 5.18506 15.7129 5 16 5Z" fill="white"/>
</svg>
