<svg width="32" height="32" viewBox="0 0 32 32" fill="none" xmlns="http://www.w3.org/2000/svg">
<path fill-rule="evenodd" clip-rule="evenodd" d="M16 32C24.8366 32 32 24.8366 32 16C32 7.16344 24.8366 0 16 0C7.16344 0 0 7.16344 0 16C0 24.8366 7.16344 32 16 32ZM16.6303 5.45821C16.5416 5.18499 16.2871 5 16 5C15.7129 5 15.4584 5.18499 15.3697 5.45821L13.0782 12.5147H5.6628C5.37568 12.5147 5.12121 12.6997 5.03248 12.9729C4.94376 13.2461 5.04096 13.5455 5.27324 13.7143L11.2724 18.0755L8.98094 25.1319C8.89222 25.4052 8.98941 25.7045 9.2217 25.8734C9.45399 26.0422 9.76853 26.0422 10.0008 25.8734L16 21.5122L21.9992 25.8734C22.2315 26.0422 22.546 26.0422 22.7783 25.8734C23.0106 25.7045 23.1078 25.4052 23.0191 25.1319L20.7276 18.0755L26.7268 13.7143C26.959 13.5455 27.0562 13.2461 26.9675 12.9729C26.8788 12.6997 26.6243 12.5147 26.3372 12.5147H18.9218L16.6303 5.45821ZM14.19 13.3827L16 7.80907L17.81 13.3827C17.8987 13.656 18.1532 13.841 18.4403 13.841H24.2975L19.5589 17.2857C19.3266 17.4545 19.2294 17.7539 19.3181 18.0271L21.1281 23.6008L16.3896 20.156C16.1573 19.9872 15.8427 19.9872 15.6104 20.156L10.8719 23.6008L12.6819 18.0271C12.7706 17.7539 12.6734 17.4545 12.4411 17.2857L7.70255 13.841H13.5597C13.8468 13.841 14.1013 13.656 14.19 13.3827Z" fill="white"/>
</svg>
