<svg width="24" height="24" viewBox="0 0 24 24" fill="none" xmlns="http://www.w3.org/2000/svg">
<path fill-rule="evenodd" clip-rule="evenodd" d="M16 2.26415C16 2.26415 20 3.4717 20 5.88679C20 13.1321 17.3333 24 16 24C13.3333 24 10.6667 24 8 24C6.66667 24 4 13.1321 4 5.88679C4 3.4717 8 2.26415 8 2.26415H10V0.45283C10 -0.150943 14 -0.150943 14 0.45283V2.26415H16ZM11.6 7.44238V1H12.4525V7.44238H11.6ZM9 23.0024L11.4741 16.56H12.3926L15.0293 23.0024H14.0581L13.3066 21.0512H10.6128L9.90527 23.0024H9ZM10 15.2424V8.8H12.417C12.9092 8.8 13.304 8.86519 13.6013 8.99556C13.8987 9.12593 14.1316 9.32661 14.3 9.59761C14.4685 9.86861 14.5527 10.152 14.5527 10.4479C14.5527 10.7233 14.478 10.9826 14.3286 11.2258C14.1792 11.4689 13.9536 11.6652 13.6519 11.8146C14.0415 11.9289 14.3411 12.1237 14.5505 12.3991C14.76 12.6745 14.8647 12.9997 14.8647 13.3747C14.8647 13.6765 14.801 13.957 14.6736 14.2163C14.5461 14.4755 14.3887 14.6755 14.2012 14.8161C14.0137 14.9567 13.7786 15.0629 13.4958 15.1347C13.2131 15.2065 12.8667 15.2424 12.4565 15.2424H10Z" fill="black"/>
<path fill-rule="evenodd" clip-rule="evenodd" d="M10.8999 14.6147H12.5039C12.7793 14.6147 12.9727 14.6045 13.084 14.584C13.2803 14.5488 13.4443 14.4902 13.5762 14.4082C13.708 14.3262 13.8164 14.2068 13.9014 14.05C13.9863 13.8933 14.0288 13.7124 14.0288 13.5073C14.0288 13.2671 13.9673 13.0584 13.8442 12.8811C13.7212 12.7039 13.5505 12.5793 13.3323 12.5076C13.114 12.4358 12.7998 12.3999 12.3896 12.3999H10.8999V14.6147Z" fill="black"/>
<path fill-rule="evenodd" clip-rule="evenodd" d="M10.8999 20.3799H13.084L12.4116 18.5957C12.2065 18.0537 12.0542 17.6084 11.9546 17.2598C11.8726 17.6729 11.7568 18.083 11.6074 18.4902L10.8999 20.3799Z" fill="black"/>
<path fill-rule="evenodd" clip-rule="evenodd" d="M10.8999 11.4468H12.293C12.6709 11.4468 12.9419 11.4219 13.106 11.3721C13.3228 11.3076 13.4861 11.2007 13.5959 11.0513C13.7058 10.9019 13.7607 10.7144 13.7607 10.4888C13.7607 10.2749 13.7095 10.0867 13.6069 9.92407C13.5044 9.76147 13.3579 9.65015 13.1675 9.59009C12.977 9.53003 12.6504 9.5 12.1875 9.5H10.8999V11.4468Z" fill="black"/>
</svg>
