<svg width="24" height="24" viewBox="0 0 24 24" fill="none" xmlns="http://www.w3.org/2000/svg">
<path fill-rule="evenodd" clip-rule="evenodd" d="M1.17595 1.3751C0.864329 1.06097 0.977713 0.76729 1.42843 0.719235L5.47019 0.288297C9.0764 -0.0962007 14.9251 -0.0959968 18.5294 0.288297L22.5712 0.719235C23.0222 0.767327 23.136 1.06029 22.8237 1.3751L12.2032 12.0811V23.356L16.4703 23.7927C16.9214 23.8389 16.9201 23.8921 16.4662 23.9098C16.4662 23.9098 14.6435 24 11.9998 24C9.35614 24 7.53345 23.9098 7.53345 23.9098C7.08004 23.8913 7.0781 23.8389 7.5293 23.7927L11.7964 23.356V12.0811L1.17595 1.3751Z" fill="black"/>
</svg>
