<?xml version="1.0" encoding="UTF-8"?>
<svg width="60px" height="60px" viewBox="0 0 60 60" version="1.1" xmlns="http://www.w3.org/2000/svg" xmlns:xlink="http://www.w3.org/1999/xlink">
    <!-- Generator: Sketch 40.3 (33839) - http://www.bohemiancoding.com/sketch -->
    <title>Custom Preset</title>
    <desc>Created with Sketch.</desc>
    <defs>
        <ellipse id="path-1" cx="30" cy="30" rx="30" ry="30"></ellipse>
        <circle id="path-3" cx="30" cy="30" r="30"></circle>
        <mask id="mask-4" maskContentUnits="userSpaceOnUse" maskUnits="objectBoundingBox" x="0" y="0" width="60" height="60" fill="white">
            <use xlink:href="#path-3"></use>
        </mask>
    </defs>
    <g id="Page-1" stroke="none" stroke-width="1" fill="none" fill-rule="evenodd">
        <g id="Custom-Preset">
            <g id="Group">
                <mask id="mask-2" fill="white">
                    <use xlink:href="#path-1"></use>
                </mask>
                <g id="Oval"></g>
                <g id="Polygon" mask="url(#mask-2)" stroke="#FFFFFF" stroke-width="0.15" fill="#FFFFFF">
                    <g transform="translate(16.164706, 14.117647)">
                        <path d="M0.221614588,1.81998353 C-0.170882118,1.40422588 -0.0280708235,1.01553176 0.539613882,0.951931765 L5.63032235,0.381570353 C10.1724,-0.127324235 17.5390588,-0.127054588 22.0788,0.381570353 L27.1694824,0.951931765 C27.7375765,1.01558118 27.8808,1.40332941 27.4874824,1.81998353 L14.1106588,15.9897176 L14.1106588,30.9123529 L19.4852471,31.4904 C20.0534824,31.5515294 20.0517176,31.6219765 19.4800235,31.6453412 C19.4800235,31.6453412 17.1842824,31.7647059 13.8545647,31.7647059 C10.5247765,31.7647059 8.22903529,31.6453412 8.22903529,31.6453412 C7.65797647,31.6208471 7.65550588,31.5515294 8.22381176,31.4904 L13.5984,30.9123529 L13.5984,15.9897176 L0.221614588,1.81998353 L0.221614588,1.81998353 Z"></path>
                    </g>
                </g>
                <g id="Oval-2" mask="url(#mask-2)" stroke-width="2" stroke="#FFFFFF">
                    <use mask="url(#mask-4)" xlink:href="#path-3"></use>
                </g>
            </g>
        </g>
    </g>
</svg>