<svg width="14" height="14" viewBox="0 0 14 14" fill="none" xmlns="http://www.w3.org/2000/svg">
<path d="M8.75 0C8.75 -0.414214 8.41421 -0.75 8 -0.75C7.58579 -0.75 7.25 -0.414214 7.25 0H8.75ZM7.25 16C7.25 16.4142 7.58579 16.75 8 16.75C8.41421 16.75 8.75 16.4142 8.75 16H7.25ZM0 7.25C-0.414214 7.25 -0.75 7.58579 -0.75 8C-0.75 8.41421 -0.414214 8.75 0 8.75V7.25ZM16 8.75C16.4142 8.75 16.75 8.41421 16.75 8C16.75 7.58579 16.4142 7.25 16 7.25V8.75ZM7.25 0V16H8.75V0H7.25ZM0 8.75H16V7.25H0V8.75Z" transform="translate(-4 7.31348) rotate(-45)" fill="white"/>
</svg>
