<svg width="24" height="24" viewBox="0 0 24 24" fill="none" xmlns="http://www.w3.org/2000/svg">
<path fill-rule="evenodd" clip-rule="evenodd" d="M4.5 11.1445C4.5 7.46924 7.45422 4.5 11.0859 4.5C14.7175 4.5 17.6718 7.46924 17.6718 11.1445C17.6718 14.8198 14.7175 17.7891 11.0859 17.7891C7.45422 17.7891 4.5 14.8198 4.5 11.1445ZM11.0859 3C6.61456 3 3 6.65234 3 11.1445C3 15.6372 6.61456 19.2891 11.0859 19.2891C13.0858 19.2891 14.9143 18.5581 16.3246 17.3486L19.7275 20.7793C20.0192 21.0732 20.4922 21.0732 20.7839 20.7793C21.0756 20.4849 21.0756 20.0083 20.7839 19.7144L17.3687 16.272C18.4965 14.8711 19.1718 13.0864 19.1718 11.1445C19.1718 6.65234 15.5573 3 11.0859 3Z" fill="black"/>
</svg>
