<svg width="14" height="14" viewBox="0 0 14 14" fill="none" xmlns="http://www.w3.org/2000/svg">
<path fill-rule="evenodd" clip-rule="evenodd" d="M10.5 6C10.5 8.48535 8.48535 10.5 6 10.5C3.51465 10.5 1.5 8.48535 1.5 6C1.5 3.51465 3.51465 1.5 6 1.5C8.48535 1.5 10.5 3.51465 10.5 6ZM9.67944 10.7393C8.66333 11.5293 7.38672 12 6 12C2.68628 12 0 9.31348 0 6C0 2.68652 2.68628 0 6 0C9.31372 0 12 2.68652 12 6C12 7.38672 11.5298 8.66309 10.74 9.67871L13.5984 12.5391C13.8914 12.832 13.8914 13.3066 13.5984 13.5996C13.3054 13.8926 12.8306 13.8926 12.5376 13.5996L9.67944 10.7393Z" fill="black"/>
</svg>
