<svg width="24" height="24" viewBox="0 0 24 24" fill="none" xmlns="http://www.w3.org/2000/svg">
<path fill-rule="evenodd" clip-rule="evenodd" d="M11.9946 1H12.0054C12.4196 1.0002 12.7552 1.33615 12.755 1.75036C12.7548 2.16457 12.4189 2.5002 12.0047 2.5H11.9953C11.5811 2.5002 11.2452 2.16457 11.245 1.75036C11.2448 1.33615 11.5804 1.0002 11.9946 1ZM8.77399 2.23891C8.93247 2.6216 8.7507 3.06031 8.368 3.21879L8.35943 3.22235C7.97688 3.3812 7.538 3.19987 7.37914 2.81733C7.22029 2.43478 7.40162 1.9959 7.78416 1.83704L7.7941 1.83292C8.1768 1.67444 8.61551 1.85621 8.77399 2.23891ZM15.226 2.23891C15.3845 1.85621 15.8232 1.67444 16.2059 1.83292L16.2158 1.83704C16.5984 1.9959 16.7797 2.43478 16.6209 2.81733C16.462 3.19987 16.0231 3.3812 15.6406 3.22235L15.632 3.21879C15.2493 3.06031 15.0675 2.6216 15.226 2.23891ZM5.28629 4.21853C5.57904 4.51157 5.57881 4.98644 5.28578 5.27919L5.27919 5.28578C4.98644 5.57881 4.51157 5.57904 4.21853 5.28629C3.9255 4.99354 3.92527 4.51867 4.21802 4.22563L4.22563 4.21802C4.51867 3.92527 4.99354 3.9255 5.28629 4.21853ZM18.7137 4.21853C19.0065 3.9255 19.4813 3.92527 19.7744 4.21802L19.782 4.22563C20.0747 4.51867 20.0745 4.99354 19.7815 5.28629C19.4884 5.57904 19.0136 5.57881 18.7208 5.28578L18.7142 5.27919C18.4212 4.98644 18.421 4.51157 18.7137 4.21853ZM2.81733 7.37914C3.19987 7.538 3.3812 7.97688 3.22235 8.35943L3.21879 8.368C3.06031 8.7507 2.6216 8.93247 2.23891 8.77399C1.85621 8.61551 1.67444 8.1768 1.83292 7.7941L1.83704 7.78416C1.9959 7.40162 2.43478 7.22029 2.81733 7.37914ZM21.1827 7.37914C21.5652 7.22029 22.0041 7.40162 22.163 7.78416L22.1671 7.7941C22.3256 8.1768 22.1438 8.61551 21.7611 8.77399C21.3784 8.93247 20.9397 8.7507 20.7812 8.368L20.7776 8.35943C20.6188 7.97688 20.8001 7.538 21.1827 7.37914ZM22.2496 11.245C22.6638 11.2448 22.9998 11.5804 23 11.9946V12.0054C22.9998 12.4196 22.6638 12.7552 22.2496 12.755C21.8354 12.7548 21.4998 12.4189 21.5 12.0047V11.9953C21.4998 11.5811 21.8354 11.2452 22.2496 11.245ZM1.75036 11.245C2.16457 11.2452 2.5002 11.5811 2.5 11.9953V12.0047C2.5002 12.4189 2.16457 12.7548 1.75036 12.755C1.33615 12.7552 1.0002 12.4196 1 12.0054V11.9946C1.0002 11.5804 1.33615 11.2448 1.75036 11.245ZM2.23891 15.226C2.6216 15.0675 3.06031 15.2493 3.21879 15.632L3.22235 15.6406C3.3812 16.0231 3.19987 16.462 2.81733 16.6209C2.43478 16.7797 1.9959 16.5984 1.83704 16.2158L1.83292 16.2059C1.67444 15.8232 1.85621 15.3845 2.23891 15.226ZM21.7611 15.226C22.1438 15.3845 22.3256 15.8232 22.1671 16.2059L22.163 16.2158C22.0041 16.5984 21.5652 16.7797 21.1827 16.6209C20.8001 16.462 20.6188 16.0231 20.7776 15.6406L20.7812 15.632C20.9397 15.2493 21.3784 15.0675 21.7611 15.226ZM4.21853 18.7137C4.51157 18.421 4.98644 18.4212 5.27919 18.7142L5.28578 18.7208C5.57881 19.0136 5.57904 19.4884 5.28629 19.7815C4.99354 20.0745 4.51867 20.0747 4.22563 19.782L4.21802 19.7744C3.92527 19.4813 3.9255 19.0065 4.21853 18.7137ZM19.7815 18.7137C20.0745 19.0065 20.0747 19.4813 19.782 19.7744L19.7744 19.782C19.4813 20.0747 19.0065 20.0745 18.7137 19.7815C18.421 19.4884 18.4212 19.0136 18.7142 18.7208L18.7208 18.7142C19.0136 18.4212 19.4884 18.421 19.7815 18.7137ZM7.37914 21.1827C7.538 20.8001 7.97688 20.6188 8.35943 20.7776L8.368 20.7812C8.7507 20.9397 8.93247 21.3784 8.77399 21.7611C8.61551 22.1438 8.1768 22.3256 7.7941 22.1671L7.78416 22.163C7.40162 22.0041 7.22029 21.5652 7.37914 21.1827ZM16.6209 21.1827C16.7797 21.5652 16.5984 22.0041 16.2158 22.163L16.2059 22.1671C15.8232 22.3256 15.3845 22.1438 15.226 21.7611C15.0675 21.3784 15.2493 20.9397 15.632 20.7812L15.6406 20.7776C16.0231 20.6188 16.462 20.8001 16.6209 21.1827ZM11.245 22.2496C11.2452 21.8354 11.5811 21.4998 11.9953 21.5H12.0047C12.4189 21.4998 12.7548 21.8354 12.755 22.2496C12.7552 22.6638 12.4196 22.9998 12.0054 23H11.9946C11.5804 22.9998 11.2448 22.6638 11.245 22.2496Z" fill="black"/>
</svg>
