<svg width="18" height="18" viewBox="0 0 18 18" fill="none" xmlns="http://www.w3.org/2000/svg">
<path fill-rule="evenodd" clip-rule="evenodd" d="M8.99427 0.25H9.00573C9.41994 0.250266 9.75551 0.586268 9.75525 1.00048C9.75498 1.41469 9.41898 1.75027 9.00476 1.75H8.99523C8.58102 1.75027 8.24502 1.41469 8.24475 1.00048C8.24448 0.586268 8.58005 0.250266 8.99427 0.25ZM11.3645 1.31821C11.5229 0.935488 11.9616 0.75365 12.3443 0.912065L12.3549 0.916434C12.7374 1.07535 12.9186 1.51427 12.7597 1.89678C12.6008 2.2793 12.1619 2.46056 11.7794 2.30165L11.7706 2.29803C11.3879 2.13962 11.2061 1.70094 11.3645 1.31821ZM6.63549 1.31821C6.79391 1.70094 6.61207 2.13962 6.22935 2.29803L6.22063 2.30165C5.83811 2.46056 5.39919 2.2793 5.24028 1.89678C5.08136 1.51427 5.26262 1.07535 5.64514 0.916434L5.65567 0.912065C6.0384 0.75365 6.47708 0.935488 6.63549 1.31821ZM14.1225 2.80947C14.4152 2.51639 14.8901 2.51608 15.1831 2.80878L15.1912 2.81685C15.4839 3.10993 15.4836 3.58481 15.1905 3.87751C14.8974 4.17021 14.4226 4.1699 14.1299 3.87682L14.1232 3.87013C13.8301 3.57743 13.8298 3.10255 14.1225 2.80947ZM3.87751 2.80947C4.17021 3.10255 4.1699 3.57743 3.87682 3.87013L3.87013 3.87682C3.57743 4.1699 3.10255 4.17021 2.80947 3.87751C2.51639 3.58481 2.51608 3.10993 2.80878 2.81685L2.81685 2.80878C3.10993 2.51608 3.58481 2.51639 3.87751 2.80947ZM16.1032 5.24028C16.4857 5.08136 16.9246 5.26262 17.0836 5.64514L17.0879 5.65567C17.2463 6.0384 17.0645 6.47708 16.6818 6.63549C16.2991 6.79391 15.8604 6.61207 15.702 6.22935L15.6983 6.22063C15.5394 5.83811 15.7207 5.39919 16.1032 5.24028ZM1.89678 5.24028C2.2793 5.39919 2.46056 5.83811 2.30165 6.22063L2.29803 6.22935C2.13962 6.61207 1.70094 6.79391 1.31821 6.63549C0.935488 6.47708 0.75365 6.0384 0.912065 5.65567L0.916434 5.64514C1.07535 5.26262 1.51427 5.08136 1.89678 5.24028ZM16.9995 8.24475C17.4137 8.24448 17.7497 8.58005 17.75 8.99427V9.00573C17.7497 9.41994 17.4137 9.75551 16.9995 9.75525C16.5853 9.75498 16.2497 9.41898 16.25 9.00476V8.99523C16.2497 8.58102 16.5853 8.24502 16.9995 8.24475ZM1.00048 8.24475C1.41469 8.24502 1.75027 8.58102 1.75 8.99523V9.00477C1.75027 9.41898 1.41469 9.75498 1.00048 9.75525C0.586268 9.75551 0.250266 9.41994 0.25 9.00573V8.99427C0.250266 8.58006 0.586268 8.24448 1.00048 8.24475ZM1.31821 11.3645C1.70094 11.2061 2.13962 11.3879 2.29803 11.7707L2.30165 11.7794C2.46056 12.1619 2.2793 12.6008 1.89678 12.7597C1.51427 12.9186 1.07535 12.7374 0.916434 12.3549L0.912065 12.3443C0.75365 11.9616 0.935488 11.5229 1.31821 11.3645ZM16.6818 11.3645C17.0645 11.5229 17.2463 11.9616 17.0879 12.3443L17.0836 12.3549C16.9246 12.7374 16.4857 12.9186 16.1032 12.7597C15.7207 12.6008 15.5394 12.1619 15.6983 11.7794L15.702 11.7706C15.8604 11.3879 16.2991 11.2061 16.6818 11.3645ZM2.80947 14.1225C3.10255 13.8298 3.57743 13.8301 3.87013 14.1232L3.87682 14.1299C4.1699 14.4226 4.17021 14.8974 3.87751 15.1905C3.58481 15.4836 3.10993 15.4839 2.81685 15.1912L2.80878 15.1831C2.51608 14.8901 2.51639 14.4152 2.80947 14.1225ZM15.1905 14.1225C15.4836 14.4152 15.4839 14.8901 15.1912 15.1831L15.1831 15.1912C14.8901 15.4839 14.4152 15.4836 14.1225 15.1905C13.8298 14.8974 13.8301 14.4226 14.1232 14.1299L14.1299 14.1232C14.4226 13.8301 14.8974 13.8298 15.1905 14.1225ZM5.24028 16.1032C5.39919 15.7207 5.83811 15.5394 6.22063 15.6983L6.22935 15.702C6.61207 15.8604 6.79391 16.2991 6.63549 16.6818C6.47708 17.0645 6.0384 17.2463 5.65567 17.0879L5.64514 17.0836C5.26262 16.9246 5.08136 16.4857 5.24028 16.1032ZM12.7597 16.1032C12.9186 16.4857 12.7374 16.9246 12.3549 17.0836L12.3443 17.0879C11.9616 17.2463 11.5229 17.0645 11.3645 16.6818C11.2061 16.2991 11.3879 15.8604 11.7707 15.702L11.7794 15.6983C12.1619 15.5394 12.6008 15.7207 12.7597 16.1032ZM8.24475 16.9995C8.24502 16.5853 8.58102 16.2497 8.99523 16.25H9.00477C9.41898 16.2497 9.75498 16.5853 9.75525 16.9995C9.75551 17.4137 9.41994 17.7497 9.00573 17.75H8.99427C8.58006 17.7497 8.24448 17.4137 8.24475 16.9995Z" fill="white"/>
</svg>
