<svg width="24" height="24" viewBox="0 0 24 24" fill="none" xmlns="http://www.w3.org/2000/svg">
<path d="M12.6303 2.45801C12.5416 2.18506 12.2871 2 12 2C11.7129 2 11.4584 2.18506 11.3697 2.45801L9.07818 9.51465H1.66277C1.46136 9.51465 1.27599 9.60596 1.15264 9.75439C1.10021 9.81738 1.05895 9.89111 1.03246 9.97266C0.943779 10.2461 1.04095 10.5454 1.27325 10.7144L7.27239 15.0752L4.98095 22.1318C4.8922 22.4053 4.98943 22.7046 5.22167 22.8735C5.45397 23.042 5.76855 23.042 6.00079 22.8735L12 18.5122L17.9992 22.8735C18.2314 23.042 18.546 23.042 18.7783 22.8735C19.0106 22.7046 19.1078 22.4053 19.019 22.1318L16.7275 15.0752L22.7267 10.7144C22.959 10.5454 23.0562 10.2461 22.9675 9.97266C22.9314 9.86182 22.8679 9.76514 22.7858 9.68945C22.6663 9.57959 22.5075 9.51465 22.3372 9.51465H14.9218L12.6303 2.45801Z" fill="white"/>
</svg>
