<svg width="24" height="24" viewBox="0 0 24 24" fill="none" xmlns="http://www.w3.org/2000/svg">
<path fill-rule="evenodd" clip-rule="evenodd" d="M12 2C12.2871 2 12.5416 2.18499 12.6303 2.45821L14.9218 9.5147H22.3372C22.6243 9.5147 22.8788 9.69969 22.9675 9.97291C23.0562 10.2461 22.959 10.5455 22.7268 10.7143L16.7276 15.0755L19.0191 22.1319C19.1078 22.4052 19.0106 22.7045 18.7783 22.8734C18.546 23.0422 18.2315 23.0422 17.9992 22.8734L12 18.5122L6.00082 22.8734C5.76853 23.0422 5.45399 23.0422 5.2217 22.8734C4.98941 22.7045 4.89222 22.4052 4.98094 22.1319L7.27243 15.0755L1.27324 10.7143C1.04096 10.5455 0.943757 10.2461 1.03248 9.97291C1.12121 9.69969 1.37568 9.5147 1.6628 9.5147H9.0782L11.3697 2.45821C11.4584 2.18499 11.7129 2 12 2ZM12 4.80907L10.19 10.3827C10.1013 10.656 9.84684 10.841 9.55972 10.841H3.70255L8.4411 14.2857C8.67339 14.4545 8.77058 14.7539 8.68186 15.0271L6.87189 20.6008L11.6104 17.156C11.8427 16.9872 12.1573 16.9872 12.3896 17.156L17.1281 20.6008L15.3181 15.0271C15.2294 14.7539 15.3266 14.4545 15.5589 14.2857L20.2975 10.841H14.4403C14.1532 10.841 13.8987 10.656 13.81 10.3827L12 4.80907Z" fill="white"/>
</svg>
